<?xml version="1.0" encoding="iso-8859-1"?>
<!-- Generator: Adobe Illustrator 19.0.0, SVG Export Plug-In . SVG Version: 6.00 Build 0)  -->
<svg version="1.1" id="Layer_1" xmlns="http://www.w3.org/2000/svg" xmlns:xlink="http://www.w3.org/1999/xlink" x="0px" y="0px"
	 viewBox="0 0 512 512" style="enable-background:new 0 0 512 512;" xml:space="preserve">
<path style="fill:#975D50;" d="M222.361,210.348V33.64C222.361,15.138,237.498,0,256,0l0,0c18.502,0,33.64,15.138,33.64,33.64
	v176.708c0,3.399-2.755,6.153-6.153,6.153h-54.972C225.115,216.501,222.361,213.746,222.361,210.348z"/>
<path style="fill:#7F443B;" d="M289.639,33.635v176.714c0,3.397-2.757,6.153-6.153,6.153h-54.975c-3.397,0-6.153-2.757-6.153-6.153
	v-20.441h40.244c3.397,0,6.153-2.757,6.153-6.153V7.04c0-1.575-0.111-3.126-0.332-4.639c4.283,1.71,8.134,4.283,11.334,7.483
	C285.849,15.974,289.639,24.392,289.639,33.635z"/>
<path style="fill:#E2E2E2;" d="M364.914,287.436c-0.237-3.023-2.789-5.367-5.872-5.367H256H152.959
	c-3.083,0-5.634,2.344-5.872,5.367c-14.77,188.226,93.828,221.019,107.508,224.392c0.923,0.228,1.888,0.228,2.811,0
	C271.084,508.455,379.683,475.662,364.914,287.436z"/>
<g>
	<path style="fill:#CCCCCC;" d="M257.403,511.831c-0.916,0.226-1.882,0.226-2.809,0c-3.724-0.926-14.496-4.023-27.891-11.852
		c20.164-5.751,117.273-42.675,105.709-217.911h26.625c3.086,0,5.638,2.345,5.874,5.37
		C379.687,475.658,271.086,508.456,257.403,511.831z"/>
	<circle style="fill:#CCCCCC;" cx="204.253" cy="429.159" r="8.832"/>
	<circle style="fill:#CCCCCC;" cx="228.945" cy="453.851" r="8.832"/>
	<circle style="fill:#CCCCCC;" cx="315.887" cy="315.317" r="8.832"/>
</g>
<path style="fill:#7F443B;" d="M256,366.862c-4.142,0-7.498-3.357-7.498-7.498V181.932c0-4.141,3.356-7.498,7.498-7.498
	c4.142,0,7.498,3.357,7.498,7.498v177.433C263.498,363.506,260.142,366.862,256,366.862z"/>
<g>
</g>
<g>
</g>
<g>
</g>
<g>
</g>
<g>
</g>
<g>
</g>
<g>
</g>
<g>
</g>
<g>
</g>
<g>
</g>
<g>
</g>
<g>
</g>
<g>
</g>
<g>
</g>
<g>
</g>
</svg>
